<?xml version="1.0" encoding="UTF-8"?>
<svg version="1.1" viewBox="0 0 1088 1088" width="272" height="272" xmlns="http://www.w3.org/2000/svg">
<path transform="translate(525,51)" d="m0 0 5 1 16 8 17 10 56 32 24 14 15 9 6 5 1 3 1 64 2 66 14-7 18-10 23-13 21-12 17-10 26-15 22-13 14-8 24-14 52-30 41-24 15-9 4-2 4 1v134l-1 14-25 15-25 14-17 10-24 14-16 9-24 14-70 40-26 15-42 24-17 10-26 15-21 12-27 16-23 13-24 14-16 9-8 4h-2l-1-11-2-72-1-139-1-40-1-17-15 6-22 12-28 16-24 14-26 15-24 14-23 13-17 10-26 15-28 16-24 14-23 13-21 12-5 2v125l1 8 9-2 27-14 21-12 23-13 17-10 28-16 29-16 8-4h3l1 22v86l-1 38-3 3-16 8-22 13-15 9-24 14-43 25-26 15-24 14-21 12-24 14-27 15-13 8-18 10-14 8-3-1-1-113v-331l9-6 18-10 23-13 21-12 18-10 25-15 43-25 21-12 26-15 56-32 24-14 16-9 24-14 23-13 26-15 28-16 23-13z" fill="#2481C6"/>
<path transform="translate(1057,325)" d="m0 0 2 1v125l-1 9-21 12-18 10-30 18-24 15-1 234-1 59-16 10-23 13-17 10-43 25-25 14-19 11-78 45-42 24-24 14-28 16-26 15-23 13-25 14-24 14-21 12-4 1-18-10-78-45-24-14-23-13-24-14-21-12-48-28-56-32-26-15-17-10-21-13-8-6 1-3 25-16 15-9 24-14 26-15 24-14 14-8 24-14 19-11 14-8 17-10 78-45 16-9 24-14 26-14 11-6h4l1 12 2 194 1 33v19l10-4 23-12 23-13 15-9 16-9 17-10 24-14 21-12 24-14 28-16 24-14 23-13 22-13 16-9 14-8v-91l-1-38-17 8-24 14-14 8-24 14-23 13-19 11-23 13-18 10h-4l-1-35v-68l1-29 5-4 23-13 18-10 17-10 24-14 16-9 14-8 24-14 26-15 24-14 18-10 15-9 42-24 19-11 17-10 24-14 21-12 17-10 23-13z" fill="#2481C6"/>
</svg>
